<!-- Generator: Adobe Illustrator 23.0.1, SVG Export Plug-In  -->
<svg version="1.1" xmlns="http://www.w3.org/2000/svg" xmlns:xlink="http://www.w3.org/1999/xlink" x="0px" y="0px"
	 width="136.582px" height="136.582px" viewBox="0 0 136.582 136.582" style="enable-background:new 0 0 136.582 136.582;"
	 xml:space="preserve">
<style type="text/css">
	.st0{fill:#FFFFFF;}
</style>
<defs>
</defs>
<g>
	<path class="st0" d="M68.291,23.775c-24.546,0-44.515,19.969-44.515,44.515c0,9.986,3.271,19.449,9.456,27.362l1.092,1.398
		l-2.288,11.791l11.111-3.828L44.723,106c7.104,4.453,15.253,6.807,23.568,6.807c24.547,0,44.516-19.97,44.516-44.517
		C112.807,43.744,92.838,23.775,68.291,23.775z M94.32,88.86c-1.31,1.312-5.141,5.349-10.896,5.349
		c-5.758,0-19.465-4.683-26.77-11.987C49.35,74.916,42.861,67.508,41.33,60.766c-1.532-6.744-1.329-9.791,0.561-12.567
		c0,0,3.067-5.364,5.568-5.671c2.502-0.308,5.723-0.308,6.591,1.328c0.868,1.633,4.751,11.137,4.751,11.137s0.663,1.636-0.358,3.219
		c-1.021,1.584-3.318,3.881-3.318,3.881s-1.277,1.637,0,3.373c1.277,1.737,3.258,4.93,7.357,9.025
		c4.091,4.097,11.951,7.016,11.951,7.016s1.125,0.152,1.84-0.562c0.715-0.716,4.598-5.569,4.598-5.569s1.249-1.608,3.321-0.662
		c2.068,0.945,11.032,5.412,11.032,5.412s1.048,0.385,1.048,1.967C96.272,83.677,95.631,87.551,94.32,88.86z"/>
	<path class="st0" d="M113.242,0h-89.9C10.451,0,0,10.449,0,23.339v89.902c0,12.892,10.451,23.341,23.342,23.341h89.9
		c12.891,0,23.34-10.449,23.34-23.341V23.339C136.582,10.449,126.133,0,113.242,0z M68.291,120.586
		c-9.153,0-18.132-2.422-26.083-7.019l-20.375,7.019l4.187-21.577C19.455,90.014,15.995,79.43,15.995,68.29
		c0-28.835,23.459-52.295,52.296-52.295c28.838,0,52.297,23.46,52.297,52.295C120.588,97.126,97.129,120.586,68.291,120.586z"/>
</g>
</svg>