<!-- Generator: Adobe Illustrator 23.0.1, SVG Export Plug-In  -->
<svg version="1.1" xmlns="http://www.w3.org/2000/svg" xmlns:xlink="http://www.w3.org/1999/xlink" x="0px" y="0px"
	 width="87.715px" height="169.428px" viewBox="0 0 87.715 169.428" style="enable-background:new 0 0 87.715 169.428;"
	 xml:space="preserve">
<style type="text/css">
	.st0{fill:#454343;}
	.st1{fill:#FFFFFF;}
</style>
<defs>
</defs>
<path class="st0" d="M78.436,169.428H9.279c-5.125,0-9.279-4.154-9.279-9.279V9.279C0,4.154,4.154,0,9.279,0h69.156
	c5.125,0,9.279,4.154,9.279,9.279v150.87C87.715,165.273,83.56,169.428,78.436,169.428z"/>
<path class="st1" d="M62.783,19.39H23.085c-5.692,0-10.306,4.614-10.306,10.306v39.698c0,5.692,4.614,10.305,10.306,10.305h21.756
	V56.545H37.05v-9.024h7.792v-6.655c0-7.724,4.717-11.928,11.606-11.928c3.301,0,6.137,0.246,6.964,0.355v8.072l-4.778,0.002
	c-3.747,0-4.472,1.78-4.472,4.393v5.761h8.936l-1.164,9.024h-7.772v23.155h8.623c5.692,0,10.306-4.613,10.306-10.305V29.696
	C73.089,24.004,68.475,19.39,62.783,19.39z"/>
<g>
	<path class="st1" d="M42.934,112.061c-5.694,0-10.326,4.632-10.326,10.326c0,5.693,4.632,10.326,10.326,10.326
		c5.693,0,10.326-4.632,10.326-10.326C53.26,116.693,48.627,112.061,42.934,112.061z"/>
	<path class="st1" d="M52.537,101.901H33.331c-6.63,0-12.024,5.394-12.024,12.024v16.925c0,6.63,5.394,12.024,12.024,12.024h19.207
		c6.63,0,12.023-5.394,12.023-12.024v-16.925C64.561,107.294,59.167,101.901,52.537,101.901z M42.934,136.149
		c-7.589,0-13.761-6.173-13.761-13.761c0-7.589,6.172-13.761,13.761-13.761c7.588,0,13.761,6.172,13.761,13.761
		C56.695,129.976,50.522,136.149,42.934,136.149z M56.485,111.904c-1.577,0-2.856-1.279-2.856-2.855
		c0-1.577,1.279-2.856,2.856-2.856c1.577,0,2.855,1.279,2.855,2.856C59.34,110.625,58.062,111.904,56.485,111.904z"/>
	<path class="st1" d="M62.783,92.232H23.085c-5.692,0-10.306,4.614-10.306,10.306v39.698c0,5.693,4.613,10.307,10.306,10.307h39.698
		c5.692,0,10.306-4.614,10.306-10.307v-39.698C73.089,96.846,68.476,92.232,62.783,92.232z M67.997,130.85
		c0,8.525-6.936,15.46-15.459,15.46H33.331c-8.524,0-15.46-6.936-15.46-15.46v-16.925c0-8.524,6.936-15.459,15.46-15.459h19.207
		c8.524,0,15.459,6.935,15.459,15.459V130.85z"/>
</g>
</svg>